<mxfile host="app.diagrams.net" modified="2020-10-12T15:09:20.886Z" agent="5.0 (X11)" etag="GcViCg0WMsc1W34Ob1sA" version="13.7.9" type="github">
  <diagram name="Page-1" id="e3a06f82-3646-2815-327d-82caf3d4e204">
    <mxGraphModel dx="2031" dy="1093" grid="1" gridSize="10" guides="1" tooltips="1" connect="1" arrows="1" fold="1" page="1" pageScale="1.5" pageWidth="1169" pageHeight="826" background="none" math="0" shadow="0">
      <root>
        <mxCell id="0" style=";html=1;" />
        <mxCell id="1" style=";html=1;" parent="0" />
        <mxCell id="6a7d8f32e03d9370-61" value="Outside Networks" style="whiteSpace=wrap;html=1;fillColor=#f8cecc;fontSize=14;strokeColor=none;verticalAlign=top;" parent="1" vertex="1">
          <mxGeometry x="1240" y="340" width="493" height="360" as="geometry" />
        </mxCell>
        <mxCell id="6a7d8f32e03d9370-58" value="Residential Private Networks" style="whiteSpace=wrap;html=1;fillColor=#dae8fc;fontSize=14;strokeColor=none;verticalAlign=top;" parent="1" vertex="1">
          <mxGeometry x="120" y="320" width="1090" height="650" as="geometry" />
        </mxCell>
        <mxCell id="41_Zh8ns-fzk2qD9HTE4-1" value="&lt;font style=&quot;font-size: 15px&quot;&gt;Verizon FiOS&lt;/font&gt;" style="ellipse;shape=cloud;whiteSpace=wrap;html=1;" vertex="1" parent="1">
          <mxGeometry x="580" y="80" width="190" height="200" as="geometry" />
        </mxCell>
        <mxCell id="41_Zh8ns-fzk2qD9HTE4-4" value="" style="fontColor=#0066CC;verticalAlign=top;verticalLabelPosition=bottom;labelPosition=center;align=center;html=1;outlineConnect=0;fillColor=#CCCCCC;strokeColor=#6881B3;gradientColor=none;gradientDirection=north;strokeWidth=2;shape=mxgraph.networks.storage;" vertex="1" parent="1">
          <mxGeometry x="1000" y="390" width="100" height="100" as="geometry" />
        </mxCell>
        <mxCell id="41_Zh8ns-fzk2qD9HTE4-5" value="" style="fontColor=#0066CC;verticalAlign=top;verticalLabelPosition=bottom;labelPosition=center;align=center;html=1;outlineConnect=0;fillColor=#CCCCCC;strokeColor=#6881B3;gradientColor=none;gradientDirection=north;strokeWidth=2;shape=mxgraph.networks.wireless_modem;" vertex="1" parent="1">
          <mxGeometry x="620" y="377.5" width="90" height="80" as="geometry" />
        </mxCell>
        <mxCell id="41_Zh8ns-fzk2qD9HTE4-6" value="" style="fontColor=#0066CC;verticalAlign=top;verticalLabelPosition=bottom;labelPosition=center;align=center;html=1;outlineConnect=0;fillColor=#CCCCCC;strokeColor=#6881B3;gradientColor=none;gradientDirection=north;strokeWidth=2;shape=mxgraph.networks.pc;" vertex="1" parent="1">
          <mxGeometry x="1010" y="590" width="100" height="70" as="geometry" />
        </mxCell>
        <mxCell id="41_Zh8ns-fzk2qD9HTE4-8" value="" style="fontColor=#0066CC;verticalAlign=top;verticalLabelPosition=bottom;labelPosition=center;align=center;html=1;outlineConnect=0;fillColor=#CCCCCC;strokeColor=#6881B3;gradientColor=none;gradientDirection=north;strokeWidth=2;shape=mxgraph.networks.desktop_pc;" vertex="1" parent="1">
          <mxGeometry x="550" y="780" width="60" height="100" as="geometry" />
        </mxCell>
        <mxCell id="41_Zh8ns-fzk2qD9HTE4-9" style="edgeStyle=orthogonalEdgeStyle;rounded=0;orthogonalLoop=1;jettySize=auto;html=1;exitX=0;exitY=1;exitDx=0;exitDy=0;" edge="1" parent="1" source="6a7d8f32e03d9370-58" target="6a7d8f32e03d9370-58">
          <mxGeometry relative="1" as="geometry" />
        </mxCell>
        <mxCell id="41_Zh8ns-fzk2qD9HTE4-10" value="" style="fontColor=#0066CC;verticalAlign=top;verticalLabelPosition=bottom;labelPosition=center;align=center;html=1;outlineConnect=0;fillColor=#CCCCCC;strokeColor=#6881B3;gradientColor=none;gradientDirection=north;strokeWidth=2;shape=mxgraph.networks.laptop;" vertex="1" parent="1">
          <mxGeometry x="180" y="565" width="100" height="55" as="geometry" />
        </mxCell>
        <mxCell id="41_Zh8ns-fzk2qD9HTE4-11" value="" style="fontColor=#0066CC;verticalAlign=top;verticalLabelPosition=bottom;labelPosition=center;align=center;html=1;outlineConnect=0;fillColor=#CCCCCC;strokeColor=#6881B3;gradientColor=none;gradientDirection=north;strokeWidth=2;shape=mxgraph.networks.laptop;" vertex="1" parent="1">
          <mxGeometry x="180" y="402.5" width="100" height="55" as="geometry" />
        </mxCell>
        <mxCell id="41_Zh8ns-fzk2qD9HTE4-13" value="" style="fontColor=#0066CC;verticalAlign=top;verticalLabelPosition=bottom;labelPosition=center;align=center;html=1;outlineConnect=0;fillColor=#CCCCCC;strokeColor=#6881B3;gradientColor=none;gradientDirection=north;strokeWidth=2;shape=mxgraph.networks.server;" vertex="1" parent="1">
          <mxGeometry x="870" y="390" width="90" height="100" as="geometry" />
        </mxCell>
        <mxCell id="41_Zh8ns-fzk2qD9HTE4-14" value="" style="fontColor=#0066CC;verticalAlign=top;verticalLabelPosition=bottom;labelPosition=center;align=center;html=1;outlineConnect=0;fillColor=#CCCCCC;strokeColor=#6881B3;gradientColor=none;gradientDirection=north;strokeWidth=2;shape=mxgraph.networks.server;" vertex="1" parent="1">
          <mxGeometry x="780" y="770" width="90" height="100" as="geometry" />
        </mxCell>
        <mxCell id="41_Zh8ns-fzk2qD9HTE4-17" value="" style="fontColor=#0066CC;verticalAlign=top;verticalLabelPosition=bottom;labelPosition=center;align=center;html=1;outlineConnect=0;fillColor=#CCCCCC;strokeColor=#6881B3;gradientColor=none;gradientDirection=north;strokeWidth=2;shape=mxgraph.networks.mobile;" vertex="1" parent="1">
          <mxGeometry x="230" y="785" width="40" height="90" as="geometry" />
        </mxCell>
        <mxCell id="41_Zh8ns-fzk2qD9HTE4-18" value="" style="fontColor=#0066CC;verticalAlign=top;verticalLabelPosition=bottom;labelPosition=center;align=center;html=1;outlineConnect=0;fillColor=#CCCCCC;strokeColor=#6881B3;gradientColor=none;gradientDirection=north;strokeWidth=2;shape=mxgraph.networks.mobile;" vertex="1" parent="1">
          <mxGeometry x="330" y="785" width="40" height="90" as="geometry" />
        </mxCell>
        <mxCell id="41_Zh8ns-fzk2qD9HTE4-21" value="" style="endArrow=none;html=1;" edge="1" parent="1" source="41_Zh8ns-fzk2qD9HTE4-13" target="41_Zh8ns-fzk2qD9HTE4-5">
          <mxGeometry width="50" height="50" relative="1" as="geometry">
            <mxPoint x="1000" y="530" as="sourcePoint" />
            <mxPoint x="1000" y="530" as="targetPoint" />
            <Array as="points" />
          </mxGeometry>
        </mxCell>
        <mxCell id="41_Zh8ns-fzk2qD9HTE4-22" value="" style="endArrow=none;html=1;" edge="1" parent="1" source="41_Zh8ns-fzk2qD9HTE4-5" target="41_Zh8ns-fzk2qD9HTE4-6">
          <mxGeometry width="50" height="50" relative="1" as="geometry">
            <mxPoint x="950" y="580" as="sourcePoint" />
            <mxPoint x="1000" y="530" as="targetPoint" />
          </mxGeometry>
        </mxCell>
        <mxCell id="41_Zh8ns-fzk2qD9HTE4-23" value="" style="endArrow=none;html=1;" edge="1" parent="1" source="41_Zh8ns-fzk2qD9HTE4-14" target="41_Zh8ns-fzk2qD9HTE4-5">
          <mxGeometry width="50" height="50" relative="1" as="geometry">
            <mxPoint x="950" y="580" as="sourcePoint" />
            <mxPoint x="1000" y="530" as="targetPoint" />
          </mxGeometry>
        </mxCell>
        <mxCell id="41_Zh8ns-fzk2qD9HTE4-24" value="" style="endArrow=none;dashed=1;html=1;dashPattern=1 3;strokeWidth=2;" edge="1" parent="1" source="41_Zh8ns-fzk2qD9HTE4-8" target="41_Zh8ns-fzk2qD9HTE4-5">
          <mxGeometry width="50" height="50" relative="1" as="geometry">
            <mxPoint x="950" y="580" as="sourcePoint" />
            <mxPoint x="1000" y="530" as="targetPoint" />
          </mxGeometry>
        </mxCell>
        <mxCell id="41_Zh8ns-fzk2qD9HTE4-25" value="" style="endArrow=none;dashed=1;html=1;dashPattern=1 3;strokeWidth=2;" edge="1" parent="1" source="41_Zh8ns-fzk2qD9HTE4-18" target="41_Zh8ns-fzk2qD9HTE4-5">
          <mxGeometry width="50" height="50" relative="1" as="geometry">
            <mxPoint x="950" y="580" as="sourcePoint" />
            <mxPoint x="1000" y="530" as="targetPoint" />
          </mxGeometry>
        </mxCell>
        <mxCell id="41_Zh8ns-fzk2qD9HTE4-26" value="" style="endArrow=none;dashed=1;html=1;dashPattern=1 3;strokeWidth=2;" edge="1" parent="1" source="41_Zh8ns-fzk2qD9HTE4-17" target="41_Zh8ns-fzk2qD9HTE4-5">
          <mxGeometry width="50" height="50" relative="1" as="geometry">
            <mxPoint x="950" y="580" as="sourcePoint" />
            <mxPoint x="1000" y="530" as="targetPoint" />
          </mxGeometry>
        </mxCell>
        <mxCell id="41_Zh8ns-fzk2qD9HTE4-27" value="" style="endArrow=none;dashed=1;html=1;dashPattern=1 3;strokeWidth=2;" edge="1" parent="1" source="41_Zh8ns-fzk2qD9HTE4-10" target="41_Zh8ns-fzk2qD9HTE4-5">
          <mxGeometry width="50" height="50" relative="1" as="geometry">
            <mxPoint x="950" y="580" as="sourcePoint" />
            <mxPoint x="1000" y="530" as="targetPoint" />
          </mxGeometry>
        </mxCell>
        <mxCell id="41_Zh8ns-fzk2qD9HTE4-28" value="" style="endArrow=none;dashed=1;html=1;dashPattern=1 3;strokeWidth=2;exitX=0.5;exitY=1;exitDx=0;exitDy=0;exitPerimeter=0;" edge="1" parent="1" source="41_Zh8ns-fzk2qD9HTE4-11" target="41_Zh8ns-fzk2qD9HTE4-5">
          <mxGeometry width="50" height="50" relative="1" as="geometry">
            <mxPoint x="950" y="580" as="sourcePoint" />
            <mxPoint x="1000" y="530" as="targetPoint" />
          </mxGeometry>
        </mxCell>
      </root>
    </mxGraphModel>
  </diagram>
</mxfile>
